<?xml version="1.0" encoding="UTF-8"?>
<svg id="Layer_1" data-name="Layer 1" xmlns="http://www.w3.org/2000/svg" viewBox="0 0 316.24 162.64">
  <defs>
    <style>
      .cls-1 {
        fill: #0f3f86;
      }

      .cls-1, .cls-2, .cls-3, .cls-4, .cls-5, .cls-6, .cls-7, .cls-8, .cls-9 {
        stroke-width: 0px;
      }

      .cls-2 {
        fill: #0c3d86;
      }

      .cls-3 {
        fill: #e3e8f1;
      }

      .cls-4 {
        fill: #feb23f;
      }

      .cls-5 {
        fill: #0c3d85;
      }

      .cls-6 {
        fill: #fdb241;
      }

      .cls-7 {
        fill: #feb241;
      }

      .cls-8 {
        fill: #0b3c84;
      }

      .cls-9 {
        fill: #0b3d85;
      }
    </style>
  </defs>
  <path class="cls-9" d="M229.95,162.64c-3.46-.54-5.7-1.12-8.72-4,0,0,0,0,0-.01-.55-3.23-.34-6.81-.05-10.74,0-.01.01-.02.02-.02,8.11,1.99,16.23,5.41,23.77-.58,2.61-2.07,3.21-5.28,2.37-8.88,0-.01-.02-.02-.03-.01-2.74,1.3-5.25,2.89-7.99,3.71-9.37,2.81-19.51-2.21-23.46-12.05-4.98-12.41-3.85-24.48,4-35.48,7.05-9.88,16.88-11.42,26.79-4.6,0,0,.01,0,.02,0,1.67-.2.57-2.04,1.9-2.88,0,0,0,0,.01,0h12.07c.13.16.52.42.52.67-.06,17.62,1.08,35.28-.73,52.85-1.34,12.96-8.66,19.29-21.5,21.9-.39.08.34-.3,0,0,0,0-3.7.1-3.7.1h0s-5.29,0-5.29,0ZM239.36,100.19c-4.64.03-8.13,4.14-8.04,9.47.09,5.13,3.1,8.48,7.67,8.54,4.78.07,8.65-3.86,8.75-8.87.1-5.13-3.61-9.17-8.38-9.14Z"/>
  <path class="cls-4" d="M162.24,6.22c0,9.25,0,22.17,0,22.97,0,.02.02.02.03.01,4.51-3.73,8.79-5.97,14.11-5.21,5.71.81,10,4.71,10.69,10.22.31,2.47.29,4.98.29,7.48.03,13.27.01,26.55.01,40.03,0,0,0,.02-.02.02-4.78.72-9.14.48-14.04.21-.01,0-.02,0-.02-.02,0-9.76-.01-19.19,0-28.62,0-2.77-1.06-4.94-3.71-5.89-2.25-.81-4.24.19-5.95,1.66-1.74,1.5-1.46,3.59-1.46,5.57,0,8.95,0,17.89,0,27.16,0,.01,0,.02-.02.02h-13.96s-.02,0-.02-.02c0-2.65,0-5.09,0-7.53,0-22.63.01-45.26,0-67.89,0-2.3-.18-4.6,2.27-6.4l11.8,6.22Z"/>
  <path class="cls-2" d="M316.23,114.17h-26.83s-.02.01-.02.03c2.34,8.9,5.89,9.9,23.94,6.95.01,0,.02,0,.02.02.8,6.76.88,13.48.09,20.08,0,0,0,.01-.01.02-13.53,7.3-32.03,4.4-39.91-6.09-9.01-11.99-7.92-31.65,2.75-42.4,6.93-6.98,15.59-8.77,24.88-5.79,8.89,2.85,13.24,9.56,14.1,18.69.09.91-.3,2.06,1,2.5,0,0,.01,0,.01.02v5.97s0,.02-.02.02ZM300.41,103.56s.02-.01.02-.02c-.7-4.72-2.59-7.87-7.04-7.29-3.67.48-5.33,3.37-4.99,7.29,0,.01,0,.02.02.02h11.99Z"/>
  <path class="cls-8" d="M59.64,77.25l-.52,4.68s-.02.02-.03.02c-8.43-3.73-15.78-1.96-21.48,4.53-5,5.7-4.78,17.05-.42,24.05,4.26,6.83,9.99,8.5,22.08,6.33.01,0,.02,0,.02.02v26.74s0,.02-.01.02c-21.93,6.92-42.96-6.52-46.09-29.03-1.73-12.41-.28-24.18,5.74-35.27h0c6.96-10.13,17.08-14.32,28.98-15.19l6.41.79c1.59.45,3.49.23,5.3,2.13,0,0,0,0,0,.01v10.15s0,0,0,0Z"/>
  <path class="cls-5" d="M146.07,90.45c.33-1.2.58-2.12.89-3.29,0,0,.01-.02.02-.02h12.76s.02,0,.02.02v56.79s0,.02-.02.02h-12.44c-1.59-.65-.11-2.52-1.37-3.44-.12.01-.49-.07-.73.08-14.92,9.06-27.91,3.68-32.02-13.34-2.12-8.77-1.87-17.51,1.33-25.99,5.79-15.36,17.02-19.33,31.52-10.83.01,0,.03,0,.03-.01ZM146.49,109.29c.04-5.12-3.3-8.94-7.96-9.11-4.71-.17-8.27,3.82-8.29,9.27-.01,5.17,2.99,8.68,7.52,8.78,4.86.11,8.68-3.8,8.73-8.94Z"/>
  <path class="cls-1" d="M80.64,81.28v9.72s.02.03.03.02c4.42-3.44,8.84-6.19,14.58-4.97,6.12,1.3,9.64,5.01,10.06,11.24,1.04,15.43.22,30.87.51,46.59,0,.01,0,.02-.02.02h-14.26s-.02,0-.02-.02c0-7.57,0-15.16,0-22.75,0-1.83.03-3.66-.01-5.49-.08-3.51-1.11-6.49-5.28-6.38-3.92.11-5.96,2.36-5.92,6.46.07,7.65.02,15.31.02,22.97,0,1.63,0,3.26,0,5.18,0,.01,0,.02-.02.02h-14.11s-.02,0-.02-.02c0-20.69,0-41.4,0-62.12,0-6.06,0-12.11,0-18.09,0-.01,0-.02.02-.02h14.43s.02,0,.02.02v17.64Z"/>
  <path class="cls-6" d="M47.23,64.2c-11.6.98-21.46,5.2-28.29,15.12,0,0-.02.01-.03,0-8.56-3.99-13.72-11.01-16.33-19.72-3.77-12.62-3.63-25.31,1.77-37.54C11.4,6.14,30.39-1.77,46.82,4.4c0,0,.01,0,.01.02.77,4.92.39,9.97.19,15.29,0,.01-.01.02-.03.02-8.61-2.78-16.46-2.74-22.12,5.21-4.6,6.46-4.36,17.1.36,24.05,5.49,8.07,13.13,8.53,21.98,5.38.01,0,.03,0,.03.02v9.8s0,.02-.02.02Z"/>
  <path class="cls-6" d="M80.64,81.25v-17.6s0-.02-.02-.02h-14.43s-.02,0-.02.02c0,5.97,0,12.02,0,18.07,0,.01-.01.02-.03.02-2.65-.79-4.52-2.72-6.51-4.48,0,0,0,0,0-.01,0-3.62,0-7.23,0-10.15,0,0,0-.01,0-.01-2.17-2.28-4.47-1.52-6.21-2.5,0,0,0,0-.01-.02-1.53-9.35-1.31-18.52,2.71-27.32,6.36-13.94,17.6-17.2,30.4-8.75,0,0,.01,0,.02,0,1.4-.56.38-2.11,1.42-3.2,0,0,0,0,.01,0,3.91-.8,8.15-.19,12.59-.3.01,0,.02,0,.02.02v56.55s0,.02-.02.02c-4.52,1.06-8.6.51-12.79.44,0,0-.02,0-.02-.02l-.82-3.57s-.02-.02-.03-.01c-2.14.98-4.18,1.91-6.23,2.85-.01,0-.03,0-.03-.02ZM71.07,47.23c-.06,5.35,2.7,8.79,7.19,8.96,5,.19,9.07-3.95,9.02-9.17-.05-4.82-3.8-8.8-8.32-8.82-4.58-.02-7.83,3.7-7.89,9.03Z"/>
  <path class="cls-2" d="M181.38,144.05h-13.29s-.02,0-.02-.02v-56.89s0-.02.02-.02h12.72c1.38.46.13,2.45,1.58,3.33,0,0,.01,0,.02,0,.44-.25,1.01-.5,1.51-.86,11.21-7.98,22.14-3.48,22.85,10.15.76,14.57.17,29.2.17,44.11,0,.01,0,.02-.02.02h-13.95s-.02,0-.02-.02c0-7.8,0-15.55,0-23.29,0-1.83.06-3.67-.11-5.49-.3-3.27-1.52-5.92-5.37-5.93-4-.02-5.71,2.59-5.79,6.11-.19,8.49-.09,16.98-.12,25.47,0,.97-.08,1.93-.14,3.31,0,.01,0,.02-.02.02Z"/>
  <path class="cls-7" d="M108.62,65.02c5.65.6,10.39,4.49,15.53.89,0,0,0-.01,0-.02-.19-5.03-4.21-6.22-7.41-8-9.71-5.41-12.63-14.37-7.42-24,4.22-7.8,11.5-10.22,19.77-10.11,3.25.04,6.67.09,10.02,2.02,0,0,.01.01.01.02v20.89s-.01.02-.02.02c-3.61-.29-7.02-1.21-10.55-.13,0,0-.01,0-.01.02-1.23,4.58,2.51,5.76,5.04,7.43,4.3,2.85,8.05,5.99,8.64,11.52.78,7.38-2.84,12.95-10.2,15.86-6.84,2.7-16.14,2.39-23.18-.96,0,0,0,0-.01-.01-1.13-4.81-.67-9.85-.23-15.42,0-.01.01-.02.02-.02Z"/>
  <path class="cls-3" d="M300.41,103.56h-11.99s-.02,0-.02-.02c-.34-3.92,1.32-6.81,4.99-7.29,4.45-.58,6.34,2.56,7.04,7.29,0,.01,0,.02-.02.02Z"/>
</svg>